<?xml version="1.0" encoding="UTF-8"?>
<svg version="1.1" xmlns="http://www.w3.org/2000/svg" width="683" height="683">
<path d="M0 0 C1.10656632 0.94462691 2.21257727 1.88990442 3.31835938 2.83544922 C4.24231506 3.62494461 4.24231506 3.62494461 5.18493652 4.4303894 C7.68980612 6.59652294 10.11212969 8.83063063 12.5 11.125 C13.3765625 11.95257813 14.253125 12.78015625 15.15625 13.6328125 C17 16 17 16 16.89477539 17.85009766 C15.65924821 20.81873405 13.8195073 22.51670982 11.52734375 24.765625 C10.62822266 25.65507812 9.72910156 26.54453125 8.80273438 27.4609375 C7.38444336 28.84152344 7.38444336 28.84152344 5.9375 30.25 C4.97783027 31.19461673 4.01883771 32.13992195 3.06054688 33.0859375 C0.71361172 35.39749172 -1.64003391 37.7017634 -4 40 C-2.4152642 43.86328627 0.05956887 46.28876923 3.0078125 49.203125 C3.49329559 49.6857782 3.97877869 50.1684314 4.47897339 50.66571045 C6.02299866 52.19858562 7.57384824 53.72434004 9.125 55.25 C10.17624009 56.29120361 11.22702657 57.33286541 12.27734375 58.375 C14.84633004 60.92199464 17.42148161 63.46265177 20 66 C18.0114295 69.40722873 16.11368357 72.09200061 13.25 74.8125 C10.678856 77.31866924 8.21057847 79.8356825 5.875 82.5625 C2.3998616 86.60354396 -1.22997941 90.48797237 -4.875 94.375 C-9.55075606 99.36349315 -14.17710955 104.3869892 -18.734375 109.484375 C-21.42379295 112.47055631 -24.14636691 115.42468171 -26.875 118.375 C-27.38144043 118.92269043 -27.88788086 119.47038086 -28.40966797 120.03466797 C-29.43358715 121.14193319 -30.45751293 122.2491923 -31.48144531 123.35644531 C-38.39473336 130.83880144 -45.26409891 138.35697183 -52 146 C-50.14649762 150.79393516 -46.18253845 153.88762522 -42.51953125 157.31445312 C-38.06167019 161.61191968 -34.67220359 165.80393999 -33.36328125 172.02734375 C-33.34652344 172.98769531 -33.32976562 173.94804687 -33.3125 174.9375 C-33.26738281 175.89527344 -33.22226562 176.85304688 -33.17578125 177.83984375 C-34.44498076 182.70611108 -37.53568991 185.46215232 -41 189 C-41.82346924 189.85440674 -42.64693848 190.70881348 -43.49536133 191.58911133 C-46.2250164 194.39445874 -48.98321389 197.16879517 -51.75 199.9375 C-52.70452714 200.90419809 -53.65895483 201.87099439 -54.61328125 202.83789062 C-55.51949219 203.74603516 -56.42570312 204.65417969 -57.359375 205.58984375 C-58.17889648 206.41347412 -58.99841797 207.23710449 -59.84277344 208.08569336 C-63.65340898 211.4672227 -67.5243712 211.35932097 -72.39453125 211.25390625 C-82.29560947 210.28903356 -88.5725752 201.81307029 -95 195 C-99.15233334 196.59025532 -101.67768012 199.63795012 -104.5625 202.875 C-105.3503186 203.74402954 -105.3503186 203.74402954 -106.15405273 204.63061523 C-107.24297711 205.83194471 -108.32963378 207.03533344 -109.4140625 208.24072266 C-111.77915089 210.86431054 -114.17179861 213.46227744 -116.5625 216.0625 C-117.46637419 217.04927004 -118.37001979 218.03624952 -119.2734375 219.0234375 C-121.13036875 221.05173659 -122.9899701 223.07754077 -124.8515625 225.1015625 C-130.29071639 231.01834151 -135.68589138 236.97023778 -141 243 C-144.49663673 241.73461938 -147.19864537 240.29511491 -150.109375 237.98828125 C-150.86476562 237.39466797 -151.62015625 236.80105469 -152.3984375 236.18945312 C-153.17445313 235.57005859 -153.95046875 234.95066406 -154.75 234.3125 C-155.51054687 233.71244141 -156.27109375 233.11238281 -157.0546875 232.49414062 C-158.59813541 231.27638639 -160.1326404 230.04721568 -161.65820312 228.80712891 C-163.97161534 226.9588032 -163.97161534 226.9588032 -166.51367188 225.43896484 C-172.63510521 221.46542435 -172.63510521 221.46542435 -173.69066143 217.2262907 C-173.84398796 215.6554634 -173.84398796 215.6554634 -174.00041199 214.05290222 C-174.57176169 209.31964392 -175.51679562 205.30659297 -177.2101593 200.85517883 C-179.64030686 193.18343533 -180.84645952 185.6809786 -178 178 C-169.90924832 163.46267206 -155.78275038 151.90919128 -143.85989986 140.54667686 C-138.80518333 135.72332597 -133.84407073 130.80789182 -128.88565794 125.88591186 C-120.0441245 117.11411537 -111.13380166 108.41589781 -102.17651367 99.76245117 C-93.48477322 91.36523979 -84.82789965 82.93447047 -76.21459961 74.45678711 C-75.68212623 73.93272088 -75.14965284 73.40865465 -74.6010439 72.86870762 C-71.92951827 70.23894852 -69.25865264 67.60852027 -66.58811414 64.97775877 C-44.49332917 43.21377158 -22.28433547 21.56994772 0 0 Z M-63.3828125 157.25 C-65.27393992 159.14960781 -67.14519214 161.06486582 -69 163 C-69.65484375 163.68320312 -70.3096875 164.36640625 -70.984375 165.0703125 C-71.60828125 165.74835938 -72.2321875 166.42640625 -72.875 167.125 C-73.44992187 167.74632812 -74.02484375 168.36765625 -74.6171875 169.0078125 C-76.25972775 171.37418404 -76.72368587 173.14475402 -77 176 C-75.74070144 178.93836331 -74.36156356 180.67233303 -72 182.8125 C-67.40682175 184.63063306 -62.87977427 184.23074239 -58 184 C-58.8125 186.4375 -58.8125 186.4375 -60 189 C-66.71021416 191.23673805 -71.41774591 189.58032086 -77.62109375 186.890625 C-80.5069044 185.81022298 -82.9457366 185.67849859 -86 186 C-84.03044835 188.36066829 -82.02085831 190.68318075 -80 193 C-79.50886719 193.59425781 -79.01773438 194.18851563 -78.51171875 194.80078125 C-75.98691226 197.65224734 -74.4875336 198.92715674 -70.6796875 199.49609375 C-66.07607583 198.87543698 -64.05044773 196.93116623 -61.0625 193.625 C-60.32290039 192.86316406 -60.32290039 192.86316406 -59.56835938 192.0859375 C-56.82894031 189.48514109 -56.82894031 189.48514109 -56 186 C-55.01 185.67 -54.02 185.34 -53 185 C-53 184.34 -53 183.68 -53 183 C-52.01 182.67 -51.02 182.34 -50 182 C-47.06644799 179.39645118 -47.06644799 179.39645118 -45 176 C-45.92540164 169.97632083 -49.85155238 166.64702175 -54.0625 162.625 C-54.71283203 161.98433594 -55.36316406 161.34367188 -56.03320312 160.68359375 C-59.36408369 156.45359751 -59.36408369 156.45359751 -63.3828125 157.25 Z " fill="#333333" transform="translate(376,231)"/>
<path d="M0 0 C3.64601924 1.61949073 6.55244488 3.85985124 9.6875 6.3125 C10.83042872 7.20220901 11.97367555 8.09150948 13.1171875 8.98046875 C13.73303711 9.4604834 14.34888672 9.94049805 14.98339844 10.43505859 C18.74344807 13.35296636 22.52964692 16.23675932 26.3125 19.125 C27.78779487 20.25255909 29.26305816 21.3801595 30.73828125 22.5078125 C31.82550025 23.3385686 32.91273143 24.16930878 34 25 C32.65368634 29.34445844 30.96846323 33.28648317 28.91015625 37.33984375 C28.4541227 38.24410851 28.4541227 38.24410851 27.98887634 39.16664124 C27.01725246 41.09222929 26.0403632 43.01507395 25.0625 44.9375 C20.02022384 54.87045447 15.13102319 64.86544034 10.34107971 74.92271423 C5.494394 85.0875334 0.53839393 95.19757424 -4.42910767 105.30377197 C-7.15734241 110.85479553 -9.88120471 116.40796446 -12.60546875 121.9609375 C-13.14922653 123.06911835 -13.69298431 124.17729919 -14.2532196 125.31906128 C-18.89057423 134.7719744 -23.51575852 144.23076895 -28.12832642 153.69580078 C-29.29830576 156.09588211 -30.46978853 158.49522553 -31.64135742 160.89453125 C-35.01548832 167.81222187 -38.36361275 174.73930223 -41.625 181.7109375 C-42.4442395 183.45286377 -42.4442395 183.45286377 -43.2800293 185.22998047 C-44.25496399 187.31031746 -45.22099483 189.39486791 -46.17504883 191.48486328 C-52.05706383 204.02853192 -52.05706383 204.02853192 -58 207 C-63.05979393 207.82036477 -66.88082076 207.52615403 -71.10546875 204.5078125 C-72.48301186 203.40087608 -73.84318931 202.27206671 -75.1875 201.125 C-76.68207092 199.91608366 -78.17818437 198.70907202 -79.67578125 197.50390625 C-80.40877441 196.90465332 -81.14176758 196.30540039 -81.89697266 195.68798828 C-84.80516848 193.35373405 -87.8191886 191.19760407 -90.875 189.0625 C-96.53246327 185.07113979 -102.1185984 180.98896825 -107.6875 176.875 C-114.43804816 171.88815092 -121.20053156 166.9200648 -128 162 C-126.47043386 157.22235517 -123.77915598 153.97707576 -120.625 150.1875 C-116.38772797 144.9948647 -112.24872389 139.75367566 -108.25 134.375 C-103.604487 128.13401162 -98.91084938 121.93231433 -94.1875 115.75 C-88.87869676 108.79871856 -83.60896788 101.82027736 -78.375 94.8125 C-72.91377294 87.50396606 -67.36795835 80.26747397 -61.74169922 73.08520508 C-61.20689941 72.40224365 -60.67209961 71.71928223 -60.12109375 71.015625 C-59.59902344 70.35449707 -59.07695312 69.69336914 -58.5390625 69.01220703 C-57.49267156 67.64413055 -56.48300377 66.24734417 -55.5078125 64.82763672 C-52.21911955 60.09092099 -49.6099591 57.83608596 -44.125 55.625 C-37.00566409 52.42036942 -33.24438338 48.47507158 -29 42 C-28.22919651 40.8610766 -27.45698268 39.72310683 -26.68359375 38.5859375 C-24.9856344 36.07158694 -23.3088324 33.54455516 -21.64453125 31.0078125 C-14.71969677 20.4717092 -7.49562361 10.13734769 0 0 Z " fill="#333333" transform="translate(199,452)"/>
<path d="M0 0 C3.954415 2.14913859 7.54369132 4.40037128 11.125 7.125 C34.04555682 23.2491436 64.91746211 31.20827557 92.76953125 31.1328125 C93.57178635 31.13376923 94.37404144 31.13472595 95.2006073 31.13571167 C96.88544799 31.13638706 98.57029138 31.13457792 100.25512695 31.13037109 C102.79579701 31.12503508 105.33628861 31.13032714 107.87695312 31.13671875 C116.63357827 31.13992995 125.28393565 30.95790518 134 30 C135.37553933 33.2562524 136.41037712 36.37859073 137.14501953 39.83447266 C137.34507599 40.76538727 137.54513245 41.69630188 137.75125122 42.65542603 C137.95966644 43.64827606 138.16808167 44.6411261 138.3828125 45.6640625 C138.60194305 46.69308685 138.82107361 47.72211121 139.04684448 48.78231812 C139.50782885 50.95207878 139.96661273 53.12230796 140.42333984 55.29296875 C141.12416438 58.62103183 141.833034 61.94730724 142.54296875 65.2734375 C142.99006166 67.38271117 143.43669218 69.49208291 143.8828125 71.6015625 C144.20150803 73.09691025 144.20150803 73.09691025 144.52664185 74.62246704 C144.72039398 75.54707733 144.91414612 76.47168762 145.11376953 77.42431641 C145.28538605 78.2375235 145.45700256 79.05073059 145.63381958 79.88858032 C146 82 146 82 146 85 C143.525 85.495 143.525 85.495 141 86 C140.67 87.32 140.34 88.64 140 90 C89.77979707 99.22056844 37.14868596 92.19526778 -8 68 C-8.65564941 67.65743164 -9.31129883 67.31486328 -9.98681641 66.96191406 C-20.80076413 61.3003547 -30.41068893 54.53628038 -40 47 C-39.26017634 43.60572049 -38.44508821 42.1241622 -35.875 39.75 C-33.37433351 37.35563714 -31.00871371 34.93675434 -28.75 32.3125 C-25.73283036 28.81285504 -22.63111422 25.39751314 -19.5 22 C-15.26061134 17.39418245 -11.09706842 12.73265183 -7 8 C-5.68823285 6.49935908 -4.37574214 4.99935031 -3.0625 3.5 C-2.47597656 2.8296875 -1.88945312 2.159375 -1.28515625 1.46875 C-0.86105469 0.9840625 -0.43695313 0.499375 0 0 Z " fill="#333333" transform="translate(368,332)"/>
<path d="M0 0 C5.79559764 2.73257042 9.80843512 7.39918361 14.3125 11.875 C15.72885742 13.24205078 15.72885742 13.24205078 17.17382812 14.63671875 C18.06134766 15.51714844 18.94886719 16.39757812 19.86328125 17.3046875 C20.68094971 18.10890137 21.49861816 18.91311523 22.34106445 19.74169922 C24 22 24 22 23.87231445 24.16357422 C22.64980052 26.73725174 20.94480881 28.29946831 18.875 30.25 C16.0701498 32.96267202 13.3461368 35.6572106 10.8125 38.625 C7.36092716 42.64781217 3.75017472 46.50942147 0.125 50.375 C-4.55077623 55.36347373 -9.17711008 60.38698979 -13.734375 65.484375 C-16.9300606 69.03268798 -20.17375265 72.53577726 -23.41625977 76.04125977 C-26.80702272 79.70710918 -30.18959077 83.38021607 -33.5625 87.0625 C-34.01222168 87.55347168 -34.46194336 88.04444336 -34.92529297 88.55029297 C-35.83062602 89.53884515 -36.73589963 90.52745177 -37.64111328 91.51611328 C-39.92642496 94.01164407 -42.2132958 96.50574527 -44.5 99 C-45.41667404 99.99999325 -46.3333407 100.99999324 -47.25 102 C-56.41666667 112 -65.58333333 122 -74.75 132 C-75.20366943 132.49491943 -75.65733887 132.98983887 -76.12475586 133.49975586 C-77.04220685 134.50059668 -77.95968736 135.50141045 -78.87719727 136.50219727 C-81.15710551 138.98911261 -83.43651293 141.47648315 -85.71484375 143.96484375 C-90.96337374 149.69599719 -96.21877477 155.42062906 -101.50170898 161.12011719 C-104.04462263 163.8664805 -106.56873917 166.62683811 -109.0625 169.41796875 C-109.80306641 170.24167969 -109.80306641 170.24167969 -110.55859375 171.08203125 C-111.91828296 172.59648184 -113.27184204 174.11642967 -114.625 175.63671875 C-116.73280681 177.7341252 -118.26785639 178.91852649 -121 180 C-134.81701761 171.76357831 -134.81701761 171.76357831 -137.40625 165.71484375 C-137.875 162.3125 -137.875 162.3125 -137.88565922 158.9152298 C-137.90110439 155.01534222 -137.90110439 155.01534222 -138.67555141 151.29833221 C-139.62698775 145.42400411 -140.35622046 140.45459248 -136.87109566 135.33204651 C-133.68671595 131.37843211 -130.02445976 127.91820892 -126.35375977 124.42382812 C-124.98081353 123.05568347 -123.61161234 121.68377193 -122.24588013 120.3084259 C-118.54542277 116.60310983 -114.79509011 112.95239274 -111.03325009 109.30955315 C-107.10435294 105.48725783 -103.22385558 101.61644255 -99.33787537 97.75061035 C-91.98012855 90.44560675 -84.58015135 83.18499996 -77.16383833 75.93951464 C-68.71936248 67.68535562 -60.32337014 59.38260713 -51.93101418 51.07551289 C-34.67392136 33.99589769 -17.35711399 16.97791716 0 0 Z " fill="#FEFEFE" transform="translate(352,275)"/>
<path d="M0 0 C5.04388894 4.22690387 9.785034 8.637504 14.4296875 13.296875 C15.44338913 14.30914154 15.44338913 14.30914154 16.47756958 15.34185791 C17.89219906 16.75581168 19.30558577 18.17100981 20.71777344 19.58740234 C22.88623389 21.76126186 25.06003622 23.92967805 27.234375 26.09765625 C28.61230029 27.47624161 29.98991574 28.85513674 31.3671875 30.234375 C32.34363724 31.20778839 32.34363724 31.20778839 33.33981323 32.2008667 C33.93778717 32.8019928 34.53576111 33.4031189 35.15185547 34.02246094 C35.67923309 34.55063416 36.20661072 35.07880737 36.74996948 35.62298584 C39.24876969 38.37562525 39.53003762 41.1498501 39.45536804 44.81687927 C37.82561855 52.63020733 27.42178945 59.50788332 21.75015831 64.89709282 C18.21383007 68.27107616 14.71652566 71.68564277 11.21217632 75.09277248 C8.16445797 78.05165928 5.10475276 80.99555909 2.01391602 83.90942383 C-17.00158914 101.77184454 -17.00158914 101.77184454 -28.10139465 125.07359314 C-30.51281941 133.23596773 -30.51281941 133.23596773 -34.98950195 136.14624023 C-38.26494924 137.90544711 -41.28129019 138.86875403 -45.01757812 138.6105957 C-47.49380271 137.84790633 -48.80643494 136.72438666 -50.71875 134.98046875 C-51.41355469 134.3477002 -52.10835938 133.71493164 -52.82421875 133.06298828 C-56.44850197 129.62658868 -59.98975339 126.11499958 -63.5 122.5625 C-64.22703125 121.83095703 -64.9540625 121.09941406 -65.703125 120.34570312 C-67.47109499 118.56610176 -69.23666378 116.78419082 -71 115 C-69.4608199 111.33247995 -67.24514548 109.01419427 -64.4296875 106.234375 C-63.53378906 105.34492188 -62.63789063 104.45546875 -61.71484375 103.5390625 C-60.77769531 102.61867188 -59.84054687 101.69828125 -58.875 100.75 C-57.92011363 99.80515144 -56.96568141 98.85984367 -56.01171875 97.9140625 C-53.67890913 95.60481662 -51.34155914 93.30036797 -49 91 C-53.38442526 85.74825074 -58.00842093 80.86777527 -62.875 76.0625 C-63.56335938 75.37865234 -64.25171875 74.69480469 -64.9609375 73.99023438 C-66.63833511 72.32448536 -68.31803791 70.6611378 -70 69 C-68.51873643 65.56069417 -66.57572554 63.33045662 -63.9296875 60.69921875 C-63.115 59.88646484 -62.3003125 59.07371094 -61.4609375 58.23632812 C-60.60757812 57.39521484 -59.75421875 56.55410156 -58.875 55.6875 C-57.62976563 54.44323242 -57.62976563 54.44323242 -56.359375 53.17382812 C-52.00049262 48.84569022 -47.55847292 44.69206524 -42.90283203 40.68676758 C-39.61837338 37.77525554 -36.57166724 34.63258757 -33.5 31.5 C-25.69847328 23.61450382 -25.69847328 23.61450382 -22 20.5 C-19.32318371 18.2014635 -16.77587 15.83058357 -14.29296875 13.32421875 C-13.61943359 12.64746094 -12.94589844 11.97070312 -12.25195312 11.2734375 C-10.89506459 9.90242808 -9.54081336 8.52880256 -8.18945312 7.15234375 C-7.56361328 6.518125 -6.93777344 5.88390625 -6.29296875 5.23046875 C-5.7311792 4.65707764 -5.16938965 4.08368652 -4.59057617 3.49291992 C-3 2 -3 2 0 0 Z " fill="#333333" transform="translate(446,158)"/>
<path d="M0 0 C3.96221915 0.68425013 5.99486728 3.13462561 8.66430664 5.9362793 C9.21213303 6.49118042 9.75995941 7.04608154 10.3243866 7.61779785 C12.06828042 9.38963944 13.79397493 11.17807719 15.51977539 12.9675293 C16.70025663 14.17309273 17.88188483 15.37753423 19.06469727 16.58081055 C21.95901755 19.5302052 24.83713774 22.49460435 27.70727539 25.4675293 C30.56786449 24.10815844 32.56655238 22.82232461 34.70727539 20.4675293 C37.92251844 21.87597647 40.02911407 23.57097715 42.45727539 26.0925293 C43.07086914 26.72416992 43.68446289 27.35581055 44.31665039 28.0065918 C44.77555664 28.48870117 45.23446289 28.97081055 45.70727539 29.4675293 C43.8822263 33.39053201 41.52456713 36.20540202 38.70727539 39.4675293 C39.34665039 39.6119043 39.98602539 39.7562793 40.64477539 39.9050293 C42.70727539 40.4675293 42.70727539 40.4675293 43.70727539 41.4675293 C44.15984753 45.17409558 44.10739059 46.90604885 41.91127777 49.98784733 C40.63920345 51.24188437 40.63920345 51.24188437 39.34143066 52.52125549 C38.63701788 53.22806636 38.63701788 53.22806636 37.91837454 53.94915622 C36.3429675 55.52273948 34.74716877 57.07385463 33.15063477 58.62597656 C32.01632354 59.75040875 30.88336515 60.87620707 29.75166321 62.00326538 C27.31285797 64.42649574 24.86499268 66.84004712 22.40974426 69.24661446 C18.52920726 73.05082741 14.67109414 76.87724988 10.81604004 80.70726013 C3.32722424 88.14146867 -4.18307862 95.55374347 -11.6966629 102.96290588 C-21.26209343 112.39627578 -30.82106672 121.83603225 -40.35393476 131.30231899 C-44.18943544 135.10944792 -48.03715052 138.90365519 -51.89472198 142.68841374 C-54.28975789 145.04302423 -56.67448828 147.40786564 -59.05655861 149.77558517 C-60.16482559 150.8728759 -61.27741716 151.96581812 -62.39455223 153.05407906 C-63.91704099 154.5383443 -65.42346147 156.03724434 -66.92687988 157.54078674 C-67.77492943 158.37643441 -68.62297897 159.21208208 -69.49672699 160.07305241 C-71.56288895 162.30207534 -71.56288895 162.30207534 -71.1905899 164.96295071 C-71.22429436 165.78946164 -71.25799881 166.61597258 -71.29272461 167.4675293 C-73.27272461 169.1175293 -75.25272461 170.7675293 -77.29272461 172.4675293 C-89.83272461 159.9275293 -102.37272461 147.3875293 -115.29272461 134.4675293 C-113.6228416 131.12776327 -112.42846826 129.25896649 -109.91772461 126.6550293 C-109.03987305 125.71723633 -109.03987305 125.71723633 -108.14428711 124.76049805 C-107.22776367 124.12047852 -107.22776367 124.12047852 -106.29272461 123.4675293 C-105.36583076 123.78325645 -105.36583076 123.78325645 -104.42021179 124.10536194 C-103.71814102 124.22487717 -103.01607025 124.3443924 -102.29272461 124.4675293 C-100.26568421 123.09482845 -100.26568421 123.09482845 -98.40136719 120.96923828 C-97.27418022 119.78822792 -97.27418022 119.78822792 -96.1242218 118.58335876 C-95.32002304 117.71884598 -94.51582428 116.85433319 -93.68725586 115.96362305 C-91.96481775 114.17307298 -90.24148205 112.383386 -88.51733398 110.59448242 C-85.80476439 107.75165444 -83.10159466 104.90115627 -80.41455078 102.03417969 C-77.82138418 99.27791487 -75.19503249 96.5570008 -72.56225586 93.83862305 C-71.76817825 92.97208603 -70.97410065 92.10554901 -70.15596008 91.2127533 C-64.57507565 85.5084312 -64.57507565 85.5084312 -60.84957886 85.38960266 C-58.55359804 85.90317231 -56.49004719 86.63881738 -54.29272461 87.4675293 C-45.18444637 88.18027058 -35.63289902 88.73819109 -28.17529297 82.77416992 C-20.77998585 76.03956588 -13.71317275 69.00221044 -6.66772461 61.9050293 C-5.46093001 60.69320504 -4.25390022 59.48161495 -3.04663086 58.27026367 C-0.12595054 55.33870459 2.79155286 52.40401909 5.70727539 49.4675293 C4.81782227 47.7659668 4.81782227 47.7659668 3.91040039 46.0300293 C2.06885293 42.3534073 0.63396635 38.64363898 -0.72827148 34.76904297 C-3.31097335 27.47074246 -5.50793173 21.892606 -11.88647461 17.07299805 C-13.29272461 15.4675293 -13.29272461 15.4675293 -13.30834961 13.1003418 C-11.98773247 9.67689582 -10.13445294 7.74292371 -7.54272461 5.1550293 C-6.68163086 4.27202148 -5.82053711 3.38901367 -4.93334961 2.47924805 C-2.29272461 0.4675293 -2.29272461 0.4675293 0 0 Z M23.70727539 52.4675293 C10.50727539 65.6675293 -2.69272461 78.8675293 -16.29272461 92.4675293 C-15.96272461 93.1275293 -15.63272461 93.7875293 -15.29272461 94.4675293 C-1.76272461 80.9375293 11.76727539 67.4075293 25.70727539 53.4675293 C25.04727539 53.1375293 24.38727539 52.8075293 23.70727539 52.4675293 Z M-56.29272461 103.4675293 C-67.51272461 114.6875293 -78.73272461 125.9075293 -90.29272461 137.4675293 C-89.63272461 138.7875293 -88.97272461 140.1075293 -88.29272461 141.4675293 C-85.34718957 141.77416518 -85.34718957 141.77416518 -83.67915344 140.21472168 C-82.80978401 139.3353595 -82.80978401 139.3353595 -81.92285156 138.43823242 C-81.26239334 137.77754761 -80.60193512 137.11686279 -79.92146301 136.43615723 C-79.21511215 135.71432251 -78.50876129 134.99248779 -77.78100586 134.2487793 C-77.05278122 133.51630981 -76.32455658 132.78384033 -75.57426453 132.0291748 C-73.24413765 129.68222103 -70.92464133 127.32506356 -68.60522461 124.9675293 C-67.02974069 123.3770038 -65.45357727 121.78715107 -63.87670898 120.19799805 C-60.00745491 116.29562147 -56.1468845 112.38481113 -52.29272461 108.4675293 C-53.60168181 105.34555452 -53.60168181 105.34555452 -56.29272461 103.4675293 Z M-42.29272461 118.4675293 C-53.84272461 130.0175293 -65.39272461 141.5675293 -77.29272461 153.4675293 C-76.96272461 154.1275293 -76.63272461 154.7875293 -76.29272461 155.4675293 C-64.41272461 143.5875293 -52.53272461 131.7075293 -40.29272461 119.4675293 C-40.95272461 119.1375293 -41.61272461 118.8075293 -42.29272461 118.4675293 Z " fill="#313131" transform="translate(566.292724609375,23.532470703125)"/>
<path d="M0 0 C3.2826932 1.49076434 5.93077441 3.38620321 8.75 5.625 C9.54921875 6.25664062 10.3484375 6.88828125 11.171875 7.5390625 C11.77515625 8.02117187 12.3784375 8.50328125 13 9 C12.37772294 13.4772037 10.61431353 17.14376351 8.5703125 21.1171875 C8.22048309 21.8102298 7.87065369 22.50327209 7.51022339 23.21731567 C6.3874907 25.43947291 5.25679134 27.6574448 4.125 29.875 C2.66575969 32.74562593 1.21034114 35.61815983 -0.2421875 38.4921875 C-0.80962173 39.61457825 -0.80962173 39.61457825 -1.38851929 40.75964355 C-4.91713558 47.77235275 -8.29674416 54.85325399 -11.66998291 61.94168091 C-16.68473498 72.46712458 -21.82591573 82.92945932 -26.97253418 93.39089966 C-29.81518992 99.1693949 -32.65391627 104.94981893 -35.4921875 110.73046875 C-36.05151978 111.86959213 -36.61085205 113.00871552 -37.18713379 114.18235779 C-42.74240488 125.50216758 -48.25645882 136.84179547 -53.74853516 148.19238281 C-57.44300356 155.82387431 -61.18601595 163.42749843 -65 171 C-68.25079122 170.38691615 -70.28382443 169.2822267 -72.9140625 167.296875 C-74.04303955 166.45358643 -74.04303955 166.45358643 -75.19482422 165.59326172 C-75.99678223 164.98498535 -76.79874023 164.37670898 -77.625 163.75 C-79.32747818 162.47569789 -81.03062045 161.20228259 -82.734375 159.9296875 C-83.60384766 159.27838867 -84.47332031 158.62708984 -85.36914062 157.95605469 C-90.24355979 154.33190414 -95.18540944 150.80122577 -100.12353516 147.26464844 C-103.83041049 144.60089244 -107.46762777 141.89515999 -111 139 C-109.4062835 133.81280809 -106.15202005 130.10101033 -102.8125 125.9375 C-101.53618013 124.32286249 -100.26149705 122.70693008 -98.98828125 121.08984375 C-98.32908691 120.25308105 -97.66989258 119.41631836 -96.99072266 118.55419922 C-93.76519562 114.41568268 -90.63344272 110.20841044 -87.5 106 C-82.67238541 99.52837002 -77.78592236 93.11028177 -72.8125 86.75 C-68.36403612 81.05933533 -63.96041274 75.33983839 -59.625 69.5625 C-59.12718018 68.90427246 -58.62936035 68.24604492 -58.11645508 67.56787109 C-55.94579094 64.68167958 -53.8692156 61.79896153 -51.8984375 58.76953125 C-47.66526819 52.31525459 -43.91272872 49.50043127 -36.8828125 46.35546875 C-27.50408294 41.9456867 -22.73634059 33.51626363 -17.3515625 25.08642578 C-15.03428736 21.509216 -12.60984825 18.00653946 -10.1875 14.5 C-9.74365967 13.85426025 -9.29981934 13.20852051 -8.8425293 12.54321289 C-5.94021966 8.32905711 -2.98374435 4.1568862 0 0 Z " fill="#FDFDFD" transform="translate(202,472)"/>
<path d="M0 0 C4.09823267 1.49303644 7.64156685 3.50471852 11.375 5.75 C22.9320409 12.4987715 35.09076863 16.53882927 48 20 C48.84046875 20.26554687 49.6809375 20.53109375 50.546875 20.8046875 C73.12181545 27.77847484 97.63284636 26.68923918 121 27 C121.48300628 28.25202288 121.96254805 29.50538257 122.44067383 30.75927734 C122.70809891 31.4570932 122.97552399 32.15490906 123.25105286 32.87387085 C124.37648264 36.06876795 125.03781861 39.30440624 125.6875 42.625 C126.06455078 44.50058594 126.06455078 44.50058594 126.44921875 46.4140625 C126.95148643 49.68414567 127.10661706 52.69994828 127 56 C126.34 56 125.68 56 125 56 C125 56.99 125 57.98 125 59 C80.77548588 68.31042403 29.33607938 56.23764946 -9.3125 33.8125 C-10.01189697 33.40870117 -10.71129395 33.00490234 -11.43188477 32.58886719 C-15.53872103 30.12888886 -18.76028443 27.52796879 -22 24 C-21.61255615 23.5875 -21.2251123 23.175 -20.82592773 22.75 C-11.33156192 12.67097585 -11.33156192 12.67097585 -2.13671875 2.3203125 C-1 1 -1 1 0 0 Z " fill="#FCFCFC" transform="translate(370,351)"/>
<path d="M0 0 C4.03799756 1.52445751 5.74936567 4.02348576 8.1875 7.5 C8.88230469 8.4796875 9.57710938 9.459375 10.29296875 10.46875 C13.09297116 14.62069865 13.16792159 16.96235242 13 22 C12.67346436 23.41406128 12.67346436 23.41406128 12.34033203 24.85668945 C11.92150794 28.72495354 12.74784374 30.55797061 14.4296875 34.04296875 C15.24542236 35.76447144 15.24542236 35.76447144 16.07763672 37.52075195 C16.67615477 38.74329671 17.2752882 39.96554038 17.875 41.1875 C18.47931537 42.44363571 19.08233459 43.70039578 19.68408203 44.95776367 C20.59056358 46.84939821 21.49892627 48.73997358 22.41427612 50.62733459 C24.21146213 54.33317208 25.94787475 58.05872224 27.625 61.8203125 C28.01059082 62.67471924 28.39618164 63.52912598 28.79345703 64.40942383 C29.48743115 65.95136227 30.17160429 67.49777109 30.84326172 69.04956055 C33.0022196 73.7539835 35.60782742 76.94610784 39.45507812 80.41479492 C42.02603891 83.05279246 42.61410151 85.39828075 43 89 C41.36127674 95.55489305 37.39395461 99.12519838 32 103 C25.80231554 106.70964477 20.31393044 108.6094942 13 108 C6.49433726 105.83556848 2.09233298 101.98458058 -1.10354614 95.8984375 C-2.20176955 93.467435 -3.23536171 91.01782657 -4.25 88.55078125 C-5.03099087 86.71538451 -5.8122488 84.88010138 -6.59375 83.04492188 C-7.80348927 80.17006713 -9.00804688 77.29317544 -10.20703125 74.41381836 C-11.37473659 71.62031154 -12.56128567 68.83539929 -13.75 66.05078125 C-14.10223633 65.18826248 -14.45447266 64.32574371 -14.81738281 63.43708801 C-16.78718395 58.84704868 -18.12776065 55.98088266 -23 54 C-25.19148357 53.48381636 -25.19148357 53.48381636 -27.375 53.25 C-32.07277967 52.31990268 -34.56399175 50.19988388 -37.8828125 46.8515625 C-39 45 -39 45 -38.77050781 43.11474609 C-37.84685393 40.57967324 -36.66298009 39.24883077 -34.7890625 37.3125 C-34.12672607 36.61987061 -33.46438965 35.92724121 -32.78198242 35.21362305 C-32.07017822 34.48312744 -31.35837402 33.75263184 -30.625 33 C-29.15434329 31.46542296 -27.68429321 29.93026434 -26.21484375 28.39453125 C-25.49280762 27.64381348 -24.77077148 26.8930957 -24.02685547 26.11962891 C-21.37303677 23.34433935 -18.77594798 20.52389801 -16.1875 17.6875 C-14.91519531 16.29337891 -14.91519531 16.29337891 -13.6171875 14.87109375 C-12.32167969 13.44990234 -12.32167969 13.44990234 -11 12 C-8.93883967 9.74877096 -6.87567822 7.49937964 -4.8125 5.25 C-3.88147522 4.23440727 -2.95048216 3.21878545 -2.01953125 2.203125 C-1.35308594 1.47609375 -0.68664062 0.7490625 0 0 Z " fill="#333333" transform="translate(279,429)"/>
<path d="M0 0 C3.55038072 1.50712301 5.79113387 3.57166092 8.4765625 6.31640625 C9.311875 7.16267578 10.1471875 8.00894531 11.0078125 8.88085938 C11.87148438 9.76580078 12.73515625 10.65074219 13.625 11.5625 C15.34414185 13.31597382 17.06539013 15.06738575 18.7890625 16.81640625 C19.54912598 17.59443604 20.30918945 18.37246582 21.09228516 19.17407227 C22.87557625 21.06086128 22.87557625 21.06086128 25 22 C23.42915374 25.90380424 20.75822296 28.42687941 17.75927734 31.26147461 C16.65295205 32.32511403 15.54670366 33.38883345 14.44052124 34.45262146 C13.56019793 35.29382443 13.56019793 35.29382443 12.6620903 36.15202141 C9.52492429 39.15891752 6.4195791 42.19848872 3.30859375 45.23242188 C-0.63694413 49.07682854 -4.59056326 52.9114244 -8.58056641 56.7097168 C-29.90279022 76.55590192 -29.90279022 76.55590192 -41 103 C-41.66 103 -42.32 103 -43 103 C-44.7265625 101.25 -44.7265625 101.25 -46.625 99 C-47.25664062 98.2575 -47.88828125 97.515 -48.5390625 96.75 C-49.02117187 96.1725 -49.50328125 95.595 -50 95 C-48.4608199 91.33247995 -46.24514548 89.01419427 -43.4296875 86.234375 C-42.53378906 85.34492188 -41.63789063 84.45546875 -40.71484375 83.5390625 C-39.77769531 82.61867188 -38.84054687 81.69828125 -37.875 80.75 C-36.92011363 79.80515144 -35.96568141 78.85984367 -35.01171875 77.9140625 C-32.67890913 75.60481662 -30.34155914 73.30036797 -28 71 C-32.38442526 65.74825074 -37.00842093 60.86777527 -41.875 56.0625 C-42.56335938 55.37865234 -43.25171875 54.69480469 -43.9609375 53.99023438 C-45.63833511 52.32448536 -47.31803791 50.6611378 -49 49 C-47.72740361 46.21192526 -46.41609041 44.16713732 -44.2421875 42.01171875 C-43.70352051 41.47434082 -43.16485352 40.93696289 -42.60986328 40.38330078 C-41.75110596 39.54387939 -41.75110596 39.54387939 -40.875 38.6875 C-39.98723877 37.80940674 -39.98723877 37.80940674 -39.08154297 36.91357422 C-35.59454209 33.48763163 -32.01955357 30.22932408 -28.2890625 27.0703125 C-24.2052149 23.3767302 -20.38869839 19.40728337 -16.51513672 15.49560547 C-12.64326322 11.60030748 -8.72868501 7.82673609 -4.515625 4.296875 C-2.92682445 2.93738587 -1.46039136 1.49558151 0 0 Z " fill="#FCFCFC" transform="translate(445,178)"/>
<path d="M0 0 C0.33 0 0.66 0 1 0 C1.29197266 1.80017578 1.29197266 1.80017578 1.58984375 3.63671875 C3.1211186 10.49999175 6.43205913 16.56510849 9.5625 22.8125 C10.83817962 25.3908532 12.10709615 27.97250324 13.375 30.5546875 C13.68832779 31.19085495 14.00165558 31.8270224 14.32447815 32.48246765 C17.44306537 38.84246868 20.32336398 45.3042615 23.07055664 51.83325195 C25.1387608 56.60462146 27.4846167 60.15562069 31 64 C29.78362621 64.8722879 28.55119108 65.72220494 27.3125 66.5625 C26.62800781 67.03816406 25.94351563 67.51382813 25.23828125 68.00390625 C23 69 23 69 20.44921875 69.04296875 C16.92757599 67.54332183 15.9988024 65.07390309 14.5 61.75 C14.01176758 60.73510498 14.01176758 60.73510498 13.51367188 59.69970703 C11.46837536 55.38546769 9.56785597 51.01318231 7.69689941 46.62084961 C6.58705352 44.02071459 5.46213823 41.42716999 4.33813477 38.83312988 C3.51332372 36.90612814 2.7163326 34.96914987 1.91992188 33.03027344 C-1.6339411 24.77095496 -4.94554501 20.02722749 -13 16 C-11.33652892 11.89610729 -8.41489664 8.93707246 -5.4375 5.75 C-4.93025391 5.19570313 -4.42300781 4.64140625 -3.90039062 4.0703125 C-2.6244675 2.69075248 -1.31496202 1.34240103 0 0 Z " fill="#FAFAFA" transform="translate(275,454)"/>
</svg>
