<?xml version="1.0" encoding="UTF-8"?>
<svg version="1.1" xmlns="http://www.w3.org/2000/svg" width="683" height="683">
<path d="M0 0 C10.52426187 5.46545902 16.65387574 13.65650901 20.37109375 24.71484375 C21 27 21 27 21 29 C21.825 29.20625 22.65 29.4125 23.5 29.625 C32.65317884 33.22089169 40.22635447 40.74570472 44.375 49.625 C45.83137069 53.03164099 46.46492373 56.33839967 47 60 C46.32195313 60.54527344 45.64390625 61.09054688 44.9453125 61.65234375 C40.19279803 65.50306531 35.52075922 69.37898637 31 73.5 C27.68010514 76.52282421 24.30235888 79.42512161 20.8125 82.25 C16.17912779 86.00428732 11.63576749 89.85016299 7.125 93.75 C6.49440674 94.29301758 5.86381348 94.83603516 5.21411133 95.39550781 C3.46216056 96.91553122 1.72625229 98.45088467 0 100 C-0.52062012 100.46301514 -1.04124023 100.92603027 -1.57763672 101.40307617 C-3.14373696 102.82077404 -3.14373696 102.82077404 -5 105 C-4.79375 105.928125 -4.5875 106.85625 -4.375 107.8125 C-4 111 -4 111 -5.2265625 112.984375 C-7.05196316 115.12339075 -8.95347445 117.0719991 -11 119 C-11.56460938 119.5465625 -12.12921875 120.093125 -12.7109375 120.65625 C-14.45726638 122.13202088 -15.89226679 123.1080966 -18 124 C-20.08764648 123.78808594 -20.08764648 123.78808594 -22.30859375 123.296875 C-24.88781377 122.94862256 -26.43777915 122.73937933 -28.81542969 123.84155273 C-30.56351281 125.19388781 -32.1191025 126.63037242 -33.6875 128.1875 C-34.89913535 129.3066441 -36.1113926 130.42511523 -37.32421875 131.54296875 C-37.93313965 132.11966309 -38.54206055 132.69635742 -39.16943359 133.29052734 C-42.02837088 135.96034315 -45.01436882 138.47395474 -48 141 C-49.16349693 141.99523336 -50.3262554 142.99133066 -51.48828125 143.98828125 C-52.06529785 144.48279785 -52.64231445 144.97731445 -53.23681641 145.48681641 C-55.02822395 147.0242221 -56.81711239 148.56451538 -58.60546875 150.10546875 C-63.93835322 154.69606553 -69.28185945 159.25761398 -74.75 163.6875 C-79.12220005 167.23511846 -83.29984422 170.95096918 -87.4609375 174.7421875 C-91.00492299 177.89360844 -94.68537697 180.86448008 -98.37109375 183.84765625 C-101.99150687 186.81176863 -105.5070741 189.88739268 -109 193 C-108.5359375 194.3921875 -108.5359375 194.3921875 -108.0625 195.8125 C-107.375 197.875 -106.6875 199.9375 -106 202 C-106.67804688 202.54527344 -107.35609375 203.09054688 -108.0546875 203.65234375 C-112.80720197 207.50306531 -117.47924078 211.37898637 -122 215.5 C-125.31989486 218.52282421 -128.69764112 221.42512161 -132.1875 224.25 C-138.62548906 229.46386438 -144.85163566 234.91041253 -151.09912109 240.34912109 C-159.04605682 247.25089085 -167.06677899 254.06687286 -175.1081543 260.8581543 C-181.43447289 266.20486451 -187.71618337 271.60347353 -194 277 C-220.07534991 299.39344722 -220.07534991 299.39344722 -231 308 C-233.90542812 306.6975667 -235.8092961 305.29113732 -238 303 C-238.92039062 303.79921875 -239.84078125 304.5984375 -240.7890625 305.421875 C-264.53075981 326.02668316 -264.53075981 326.02668316 -272.75 332.6875 C-276.2588399 335.53458501 -279.65866637 338.45812552 -283 341.5 C-286.38429536 344.58002906 -289.82805462 347.54607891 -293.375 350.4375 C-294.2825 351.1903125 -295.19 351.943125 -296.125 352.71875 C-299 355 -299 355 -302.1875 357.15625 C-312.11841451 364.26366921 -313.87809316 371.56414629 -316 383 C-322.80547286 419.12533523 -322.80547286 419.12533523 -337.1953125 429.59765625 C-342.42672449 432.86956723 -346.88511924 434.10806564 -353 433 C-357.98926227 431.5788162 -362.30700657 429.89137623 -366.0625 426.25 C-369.53815041 423.58779969 -371.53308956 423.11843408 -375.8359375 423.40625 C-380.0181563 424.55371797 -381.75409566 427.47327489 -384 431 C-384.59941406 431.9075 -385.19882812 432.815 -385.81640625 433.75 C-391.64564518 443.09625365 -395.90707551 453.18901545 -393.49609375 464.328125 C-391.69997448 470.8557356 -388.928362 476.91178494 -386 483 C-392.94308541 487.47020568 -399.98739336 491.68512877 -407.3125 495.5 C-407.95703125 495.84998047 -408.6015625 496.19996094 -409.265625 496.56054688 C-414.05557358 498.99470275 -417.63936712 499.33318029 -423 499 C-423.30067383 499.55647217 -423.60134766 500.11294434 -423.91113281 500.6862793 C-435.82284857 522.70224524 -448.10476077 544.16542858 -462 565 C-462.64461182 565.96881104 -463.28922363 566.93762207 -463.95336914 567.93579102 C-467.27850946 572.93018662 -470.61451088 577.91700018 -473.96484375 582.89453125 C-481.27051942 593.76624464 -488.4530613 604.65197291 -495 616 C-499.12607967 614.44913015 -501.38251791 611.45834999 -504.0625 608.125 C-513.22271569 596.84212158 -523.34800932 586.46535275 -533.61572266 576.19897461 C-535.50322813 574.30926811 -537.38254617 572.41166062 -539.26171875 570.51367188 C-545.48222004 564.26515903 -551.73127997 558.31547191 -558.67626953 552.8684082 C-564.76356452 547.97388535 -569.67853113 542.48220331 -574 536 C-571.70741114 531.70532155 -568.72842177 528.52788488 -565.25 525.1875 C-561.16882532 521.19447428 -557.27840977 517.14292673 -553.57421875 512.79296875 C-551.41419977 510.33279825 -549.08069726 508.07035076 -546.74609375 505.77734375 C-544.93522357 503.93406426 -543.24678646 502.02177201 -541.5625 500.0625 C-539.14382221 497.25423653 -536.64100317 494.60029407 -534 492 C-531.40017817 489.44009866 -528.93731602 486.8322046 -526.5625 484.0625 C-523.99334729 481.07198284 -521.30682744 478.26883316 -518.5 475.5 C-515.75499458 472.79196435 -513.1272909 470.05830751 -510.625 467.125 C-506.9315206 462.81307754 -502.90227403 458.86927934 -498.84375 454.90625 C-496.73223675 452.7999293 -494.77302169 450.60390069 -492.83203125 448.33984375 C-488.20478796 442.99760736 -483.19310639 438.04737924 -478.1875 433.0625 C-477.22444087 432.09587098 -476.26154919 431.1290751 -475.29882812 430.16210938 C-474.38939453 429.25396484 -473.47996094 428.34582031 -472.54296875 427.41015625 C-471.71821045 426.58652588 -470.89345215 425.76289551 -470.04370117 424.91430664 C-467.28187269 422.32734007 -466.48262795 422.01787511 -462.625 421.875 C-459 422 -459 422 -457.1328125 422.50390625 C-454.45933925 423.12575809 -451.99169701 423.09513925 -449.25 423.0625 C-447.77273438 423.04896484 -447.77273438 423.04896484 -446.265625 423.03515625 C-445.51796875 423.02355469 -444.7703125 423.01195312 -444 423 C-440.55099618 416.00568901 -438.44146138 408.91024209 -436.5 401.375 C-436.19449219 400.22290039 -435.88898438 399.07080078 -435.57421875 397.88378906 C-434.30512752 393.08689425 -433.05525569 388.2881079 -431.90625 383.4609375 C-426.30288393 360.51611956 -411.70590296 344.50254462 -393.6484375 330.14453125 C-391.01330804 328.01077598 -388.5034005 325.78622853 -386 323.5 C-382.68010514 320.47717579 -379.30235888 317.57487839 -375.8125 314.75 C-371.36147808 311.14529915 -367.00801395 307.44629733 -362.6875 303.6875 C-362.05400635 303.13642578 -361.4205127 302.58535156 -360.76782227 302.01757812 C-359.48168345 300.89837515 -358.19563212 299.77907163 -356.90966797 298.65966797 C-349.76608759 292.45127377 -342.60354128 286.27176028 -335.25 280.3125 C-330.86848205 276.75732096 -326.68289319 273.03230463 -322.51171875 269.234375 C-319.99848768 266.99865467 -317.42688521 264.86622318 -314.8125 262.75 C-308.37288007 257.53481485 -302.14544597 252.08668248 -295.89648438 246.64648438 C-291.19904477 242.5682747 -286.46516497 238.53227432 -281.73828125 234.48828125 C-279.98047082 232.98327951 -278.22435554 231.47632297 -276.46875 229.96875 C-270.29632987 224.66945574 -264.10738929 219.3910263 -257.89208984 214.14208984 C-251.56575635 208.79521893 -245.28390421 203.39660168 -239 198 C-231.65148932 191.68911686 -224.29259683 185.3919562 -216.89208984 179.14208984 C-212.93534221 175.79793816 -208.99482501 172.43532789 -205.0625 169.0625 C-204.48330811 168.56580811 -203.90411621 168.06911621 -203.30737305 167.55737305 C-200.33243959 165.00489582 -197.3602292 162.44930018 -194.390625 159.890625 C-189.05879366 155.3016409 -183.71670329 150.74122166 -178.25 146.3125 C-173.86848205 142.75732096 -169.68289319 139.03230463 -165.51171875 135.234375 C-162.99848768 132.99865467 -160.42688521 130.86622318 -157.8125 128.75 C-151.37288007 123.53481485 -145.14544597 118.08668248 -138.89648438 112.64648438 C-134.19904477 108.5682747 -129.46516497 104.53227432 -124.73828125 100.48828125 C-122.98047082 98.98327951 -121.22435554 97.47632297 -119.46875 95.96875 C-113.29632987 90.66945574 -107.10738929 85.3910263 -100.89208984 80.14208984 C-94.56575635 74.79521893 -88.28390421 69.39660168 -82 64 C-74.65148932 57.68911686 -67.29259683 51.3919562 -59.89208984 45.14208984 C-53.56575635 39.79521893 -47.28390421 34.39660168 -41 29 C-38.64628723 26.97863718 -36.29221478 24.95769551 -33.9375 22.9375 C-33.36185303 22.44362793 -32.78620605 21.94975586 -32.19311523 21.44091797 C-29.30675681 18.96736035 -26.41469297 16.50091888 -23.51171875 14.046875 C-22.66504639 13.33108276 -22.66504639 13.33108276 -21.80126953 12.60083008 C-20.69874392 11.67124652 -19.59430077 10.74393167 -18.48779297 9.8190918 C-14.79000834 6.7181486 -11.27136835 3.47869281 -7.87890625 0.046875 C-4.98399447 -1.5660904 -3.12221616 -0.86947792 0 0 Z M-350 400 C-350.85851562 400.76957031 -350.85851562 400.76957031 -351.734375 401.5546875 C-353.26554828 403.05044688 -353.26554828 403.05044688 -353.5 405.875 C-352.83386117 410.0383677 -351.21807345 411.36703081 -348 414 C-346.68163705 414.69580267 -345.35208914 415.37224433 -344 416 C-343.67 416.66 -343.34 417.32 -343 418 C-344.6065676 417.74379316 -346.2102483 417.46944129 -347.8125 417.1875 C-348.70582031 417.03667969 -349.59914063 416.88585937 -350.51953125 416.73046875 C-353.21891181 415.93553306 -354.12440494 415.00956613 -356 413 C-358.16299211 413.22757731 -358.16299211 413.22757731 -360 414 C-359.07870137 417.09891358 -358.32841931 418.72788114 -355.8125 420.8125 C-352.07810559 422.38924431 -350.03115587 422.68324676 -346 422 C-339.1714777 417.79783243 -333.09946159 410.41331762 -330.203125 402.9453125 C-329.54266486 399.86756824 -329.82357163 398.27934492 -331.5 395.625 C-339.42659714 390.47271186 -343.89736061 394.37043343 -350 400 Z " fill="#333333" transform="translate(605,34)"/>
<path d="M0 0 C5.04557881 4.26782767 9.93259868 8.66454907 14.75 13.1875 C15.40871094 13.80302734 16.06742188 14.41855469 16.74609375 15.05273438 C19.53700154 17.66531845 22.30849554 20.2845914 25 23 C23.35233636 26.65465817 21.1020905 29.70137548 18.75 32.9375 C9.30909623 46.27960367 5.01097482 58.690415 6 75 C6.43470718 77.42740487 6.99215721 79.78112884 7.58984375 82.171875 C8.21282879 84.94860834 8.31803494 86.43715429 7 89 C2.08258563 92.85807776 -3.00184374 93.42768308 -9.09375 93.3359375 C-14.17102279 94.49606703 -18.20967966 97.64397467 -21.35058594 101.77734375 C-22.54022985 103.75010971 -23.59440675 105.75224616 -24.625 107.8125 C-25.47542998 109.41856894 -26.32706222 111.02400167 -27.1796875 112.62890625 C-27.63053711 113.4914502 -28.08138672 114.35399414 -28.54589844 115.24267578 C-40.31902429 137.56733719 -53.56945199 158.81925161 -67.9453125 179.546875 C-69.99150374 182.50550446 -71.98230816 185.49105614 -73.9296875 188.515625 C-74.61466309 189.57342163 -74.61466309 189.57342163 -75.31347656 190.65258789 C-76.16533222 191.97429618 -77.00894563 193.30136656 -77.84277344 194.63452148 C-78.9765625 196.38671875 -78.9765625 196.38671875 -81 199 C-84 199 -84 199 -85.55999756 197.52012634 C-86.1070636 196.84695877 -86.65412964 196.1737912 -87.21777344 195.48022461 C-90.79501893 191.21445716 -94.58398197 187.25476801 -98.515625 183.31640625 C-99.21210144 182.61660141 -99.90857788 181.91679657 -100.62615967 181.19578552 C-102.09044914 179.7264693 -103.55606335 178.25847218 -105.02294922 176.79174805 C-107.23565195 174.57686221 -109.44022426 172.35409695 -111.64453125 170.13085938 C-118.53275675 163.21927772 -125.30442501 156.56898654 -133.18261719 150.77709961 C-133.78235352 150.19065674 -134.38208984 149.60421387 -135 149 C-135 144.50106645 -135 144.50106645 -132.46484375 141.890625 C-131.91062744 141.30933838 -131.35641113 140.72805176 -130.78540039 140.12915039 C-130.17559326 139.50903076 -129.56578613 138.88891113 -128.9375 138.25 C-127.6430505 136.89991086 -126.34878566 135.54964466 -125.0546875 134.19921875 C-124.38276367 133.50489746 -123.71083984 132.81057617 -123.01855469 132.09521484 C-119.82976779 128.78532501 -116.69887345 125.42195412 -113.5625 122.0625 C-112.30244608 120.71840985 -111.04202747 119.37466148 -109.78125 118.03125 C-107.28039158 115.36538649 -104.78037574 112.69873789 -102.28125 110.03125 C-99.17315765 106.71380216 -96.06354559 103.39778445 -92.953125 100.08251953 C-91.6062851 98.64645149 -90.25996204 97.20989861 -88.9140625 95.77294922 C-86.79813269 93.51411665 -84.68046246 91.25692661 -82.5625 89 C-81.92449463 88.3181665 -81.28648926 87.63633301 -80.62915039 86.93383789 C-76.75806827 82.81278093 -72.81195575 78.78391474 -68.78320312 74.81665039 C-67.08210024 73.08364018 -65.50196495 71.29369085 -63.9375 69.4375 C-63.36386719 68.79683594 -62.79023437 68.15617187 -62.19921875 67.49609375 C-60.95266076 66.0812615 -59.72031223 64.65270157 -58.53759766 63.18408203 C-48.59116949 50.93209251 -48.59116949 50.93209251 -42.58447266 49.37304688 C-38.44654842 48.98872455 -34.5254221 49.2878818 -30.41015625 49.765625 C-25.70621872 50.22293795 -22.07121611 49.43057678 -18 47 C-13.98213905 43.0937463 -11.82644987 38.97451137 -10 33.75 C-9.75217773 33.06687744 -9.50435547 32.38375488 -9.24902344 31.67993164 C-6.61495371 24.23775955 -4.54930589 16.63660001 -2.53710938 9.00732422 C-1.73063673 5.99331598 -0.86648598 2.99725378 0 0 Z " fill="#FDFDFD" transform="translate(189,423)"/>
<path d="M0 0 C3.57103311 1.46139022 5.2815032 3.29671444 7.57421875 6.3671875 C8.23808594 7.24802002 8.90195312 8.12885254 9.5859375 9.03637695 C10.62621094 10.44149536 10.62621094 10.44149536 11.6875 11.875 C12.39777344 12.82141357 13.10804688 13.76782715 13.83984375 14.74291992 C15.89997729 17.49031289 17.95031293 20.24481033 20 23 C21.01581147 24.35370245 22.03258299 25.70668563 23.05078125 27.05859375 C25.04054276 29.70076708 27.02334961 32.34799407 29 35 C27.45427224 38.81628832 25.11228755 40.97025743 22.0625 43.6875 C21.57233398 44.12537842 21.08216797 44.56325684 20.57714844 45.0144043 C16.48438247 48.64172615 12.25746941 52.09451618 8.00390625 55.53125 C2.53858758 60.02290331 -2.76384704 64.70453233 -8.09912109 69.34912109 C-16.04446547 76.2495088 -24.06229664 83.06582963 -32.10375977 89.85375977 C-36.10763267 93.23633158 -40.08784527 96.6456724 -44.0625 100.0625 C-50.32097269 105.44090231 -56.6434972 110.73784017 -63 116 C-68.05517693 114.52752731 -70.79514212 111.51648261 -74.3125 107.8125 C-75.46421563 106.62832797 -76.61785315 105.44602201 -77.7734375 104.265625 C-78.32741211 103.69908203 -78.88138672 103.13253906 -79.45214844 102.54882812 C-81.94202303 100.05738264 -84.59445917 97.77845825 -87.27734375 95.5 C-89.99305811 93.13529634 -92.48617579 90.57666982 -95 88 C-91.02658463 75.28507083 -78.00408457 65.4138214 -68.00390625 57.43359375 C-64.49726107 54.59270955 -61.0897675 51.6518605 -57.6875 48.6875 C-57.05392578 48.13626465 -56.42035156 47.5850293 -55.76757812 47.01708984 C-54.4814751 45.89810203 -53.19550523 44.77896117 -51.90966797 43.65966797 C-44.76608759 37.45127377 -37.60354128 31.27176028 -30.25 25.3125 C-25.8835541 21.76955047 -21.71146063 18.05835872 -17.5546875 14.2734375 C-11.92165199 9.26055269 -6.06316516 4.48392214 0 0 Z " fill="#FCFCFC" transform="translate(290,319)"/>
<path d="M0 0 C7.73254435 3.49645484 14.69516124 11.86114239 19 19 C18.42339024 23.66164607 15.26241834 25.69303768 11.8125 28.5 C10.52714097 29.57267372 9.24199041 30.6455973 7.95703125 31.71875 C7.29783691 32.26402344 6.63864258 32.80929688 5.95947266 33.37109375 C2.94269267 35.87893777 -0.02730107 38.44022279 -3 41 C-4.16254229 41.99634832 -5.32530365 42.99244108 -6.48828125 43.98828125 C-8.86359208 46.02397769 -11.2355951 48.06344576 -13.60546875 50.10546875 C-18.93835322 54.69606553 -24.28185945 59.25761398 -29.75 63.6875 C-34.13151795 67.24267904 -38.31710681 70.96769537 -42.48828125 74.765625 C-45.88457506 77.78690037 -49.4159298 80.62575933 -52.94921875 83.484375 C-56.52056409 86.42924875 -60.0121637 89.45714836 -63.5 92.5 C-69.56902389 97.79302274 -75.72505723 102.95134542 -82 108 C-86.08332902 106.44533803 -88.08208993 103.74912156 -90.75 100.375 C-91.54921875 99.37210937 -92.3484375 98.36921875 -93.171875 97.3359375 C-93.77515625 96.56507813 -94.3784375 95.79421875 -95 95 C-93.54116091 91.64617405 -91.67277468 89.47876973 -89.125 86.875 C-83.52241215 80.80023295 -79.18167852 73.99458624 -74.69921875 67.07421875 C-71.35450325 61.9646395 -68.01112061 57.7936924 -63.1875 54 C-58.60052801 50.32188283 -54.12012992 46.55011418 -49.6875 42.6875 C-48.40494882 41.57161355 -47.12239673 40.45572814 -45.83984375 39.33984375 C-45.20288574 38.78538574 -44.56592773 38.23092773 -43.90966797 37.65966797 C-36.76608759 31.45127377 -29.60354128 25.27176028 -22.25 19.3125 C-17.8053233 15.70446833 -13.53706281 11.93969777 -9.3046875 8.0859375 C-6.25569294 5.32633903 -3.13659453 2.65928666 0 0 Z " fill="#FCFCFC" transform="translate(458,211)"/>
<path d="M0 0 C1.98 1.98 1.98 1.98 4 4 C2.45427224 7.81628832 0.11228755 9.97025743 -2.9375 12.6875 C-3.42766602 13.12537842 -3.91783203 13.56325684 -4.42285156 14.0144043 C-8.51561753 17.64172615 -12.74253059 21.09451618 -16.99609375 24.53125 C-22.4630247 29.02422836 -27.76675791 33.70746063 -33.10351562 38.35351562 C-37.80095523 42.4317253 -42.53483503 46.46772568 -47.26171875 50.51171875 C-49.01952918 52.01672049 -50.77564446 53.52367703 -52.53125 55.03125 C-58.70367013 60.33054426 -64.89261071 65.6089737 -71.10791016 70.85791016 C-77.43424365 76.20478107 -83.71609579 81.60339832 -90 87 C-97.34851068 93.31088314 -104.70740317 99.6080438 -112.10791016 105.85791016 C-118.43424365 111.20478107 -124.71609579 116.60339832 -131 122 C-138.34851068 128.31088314 -145.70740317 134.6080438 -153.10791016 140.85791016 C-157.06465779 144.20206184 -161.00517499 147.56467211 -164.9375 150.9375 C-165.51669189 151.43419189 -166.09588379 151.93088379 -166.69262695 152.44262695 C-169.66756041 154.99510418 -172.6397708 157.55069982 -175.609375 160.109375 C-180.94120634 164.6983591 -186.28329671 169.25877834 -191.75 173.6875 C-195.2588399 176.53458501 -198.65866637 179.45812552 -202 182.5 C-206.25218587 186.36989155 -210.63773674 190.03078898 -215.10546875 193.6484375 C-218.3212062 196.26095295 -221.50728591 198.90696929 -224.6875 201.5625 C-225.21714355 202.00456787 -225.74678711 202.44663574 -226.29248047 202.90209961 C-227.52867134 203.93431282 -228.76439054 204.96709087 -230 206 C-231.32 205.01 -232.64 204.02 -234 203 C-233.51575187 198.76767134 -231.23104037 197.04458367 -228.125 194.3125 C-227.63394775 193.87752197 -227.14289551 193.44254395 -226.63696289 192.99438477 C-222.41530607 189.2841992 -218.05671391 185.74435492 -213.68359375 182.21484375 C-211.05291443 180.04367173 -208.52057576 177.79758643 -206 175.5 C-202.68010514 172.47717579 -199.30235888 169.57487839 -195.8125 166.75 C-189.37288007 161.53481485 -183.14544597 156.08668248 -176.89648438 150.64648438 C-172.20215479 146.57097475 -167.47101259 142.53816153 -162.74707031 138.49707031 C-160.96164376 136.96713241 -159.17963855 135.43329199 -157.3984375 133.8984375 C-152.06449936 129.30622865 -146.71957787 124.74355043 -141.25 120.3125 C-136.86848205 116.75732096 -132.68289319 113.03230463 -128.51171875 109.234375 C-125.99848768 106.99865467 -123.42688521 104.86622318 -120.8125 102.75 C-114.37451094 97.53613562 -108.14836434 92.08958747 -101.90087891 86.65087891 C-93.95394318 79.74910915 -85.93322101 72.93312714 -77.8918457 66.1418457 C-71.56552711 60.79513549 -65.28381663 55.39652647 -59 50 C-51.65227728 43.68979356 -44.2947804 37.39256737 -36.89428711 31.14428711 C-32.91396058 27.78085998 -28.9535504 24.39484311 -25 21 C-20.32406975 16.98628117 -15.6390793 12.98365732 -10.9375 9 C-10.41349609 8.55527344 -9.88949219 8.11054687 -9.34960938 7.65234375 C-6.27312482 5.04947066 -3.15802196 2.50323943 0 0 Z " fill="#F7F7F7" transform="translate(538,107)"/>
<path d="M0 0 C3.27155869 2.36665948 4.70646942 3.89926032 5.75 7.8125 C3.9005083 15.67283971 -3.79184107 20.64049692 -9.82421875 25.4296875 C-14.24534528 28.96035979 -18.46414665 32.73092202 -22.69726562 36.4831543 C-31.92032972 44.57557749 -31.92032972 44.57557749 -37.0625 45.625 C-40 45 -40 45 -42.875 42.375 C-45.19483097 38.69056258 -45.90140975 37.23662583 -45 33 C-43.3951863 31.27369512 -41.71772896 29.61398971 -40 28 C-39.17242187 27.22140625 -38.34484375 26.4428125 -37.4921875 25.640625 C-32.04877582 20.66843403 -26.523063 15.8559504 -20.765625 11.25 C-18.84534346 9.68773705 -16.9618019 8.07965142 -15.109375 6.4375 C-14.16578125 5.6125 -13.2221875 4.7875 -12.25 3.9375 C-10.98929687 2.80634766 -10.98929687 2.80634766 -9.703125 1.65234375 C-6.22804704 -0.47187298 -4.00665246 -0.45243922 0 0 Z " fill="#353535" transform="translate(293,329)"/>
<path d="M0 0 C3.16115776 1.36983503 3.9927092 1.9890638 6 5 C0.94234697 9.64075322 -4.16214258 14.18250335 -9.5 18.5 C-13.0947765 21.4081338 -16.58260628 24.38541332 -20 27.5 C-23.31989486 30.52282421 -26.69764112 33.42512161 -30.1875 36.25 C-36.62548906 41.46386438 -42.85163566 46.91041253 -49.09912109 52.34912109 C-58.65916888 60.65184947 -68.32309484 68.83410661 -78 77 C-79.65 75.35 -81.3 73.7 -83 72 C-75.41253702 64.33095139 -67.39198776 57.24603349 -59.00390625 50.46875 C-53.5369753 45.97577164 -48.23324209 41.29253937 -42.89648438 36.64648438 C-38.19904477 32.5682747 -33.46516497 28.53227432 -28.73828125 24.48828125 C-26.98047082 22.98327951 -25.22435554 21.47632297 -23.46875 19.96875 C-15.67511691 13.27759417 -7.8503352 6.62453535 0 0 Z " fill="#F6F6F6" transform="translate(563,138)"/>
<path d="M0 0 C2.23364935 1.333225 2.82797154 2.65487701 3.75390625 5.046875 C-1.20433155 9.59640773 -6.2018493 14.06277551 -11.43359375 18.296875 C-16.01116294 22.00314551 -20.48740296 25.81018839 -24.93359375 29.671875 C-25.57603027 30.22931396 -26.2184668 30.78675293 -26.88037109 31.36108398 C-30.9004322 34.85694741 -34.89107901 38.38325229 -38.828125 41.97265625 C-40.24609375 43.046875 -40.24609375 43.046875 -42.24609375 43.046875 C-43.87109375 41.046875 -43.87109375 41.046875 -45.24609375 39.046875 C-43.94727763 36.12991301 -42.6581897 34.2604099 -40.2265625 32.19921875 C-39.62312012 31.68214355 -39.01967773 31.16506836 -38.39794922 30.63232422 C-37.74971191 30.08850098 -37.10147461 29.54467773 -36.43359375 28.984375 C-35.76215332 28.41219238 -35.09071289 27.84000977 -34.39892578 27.25048828 C-32.3532312 25.50964609 -30.30019661 23.77778161 -28.24609375 22.046875 C-27.10370103 21.07737132 -25.96174308 20.107355 -24.8203125 19.13671875 C-22.70732989 17.34068353 -20.58643087 15.5546377 -18.4609375 13.7734375 C-16.16934497 11.84598263 -13.92130212 9.87691024 -11.6875 7.8828125 C-11.1011377 7.3667041 -10.51477539 6.8505957 -9.91064453 6.31884766 C-8.78409954 5.32607391 -7.66608254 4.32351314 -6.55810547 3.31005859 C-2.83865959 0.05924159 -2.83865959 0.05924159 0 0 Z " fill="#F6F6F6" transform="translate(603.24609375,52.953125)"/>
<path d="M0 0 C1.7074998 1.28062485 3.37373596 2.61767557 5 4 C5 4.66 5 5.32 5 6 C3.53309441 7.3327188 1.99677499 8.58913869 0.4375 9.8125 C-4.25948591 13.56888282 -8.84390488 17.42029242 -13.375 21.375 C-18.26621329 25.63474648 -23.17367327 29.87269562 -28.125 34.0625 C-28.64497559 34.50319824 -29.16495117 34.94389648 -29.70068359 35.39794922 C-32.7613148 37.98263778 -35.86125758 40.51085079 -39 43 C-40.9375 42.25 -40.9375 42.25 -43 41 C-43.62890625 38.921875 -43.62890625 38.921875 -44 37 C-43.22398437 36.34515625 -42.44796875 35.6903125 -41.6484375 35.015625 C-35.76979625 30.05059994 -29.90320176 25.07212357 -24.0625 20.0625 C-23.49023682 19.57185059 -22.91797363 19.08120117 -22.32836914 18.57568359 C-19.25163641 15.93627694 -16.17881246 13.29241835 -13.109375 10.64453125 C-12.47378662 10.09724365 -11.83819824 9.54995605 -11.18334961 8.98608398 C-9.96420484 7.93621626 -8.74620991 6.88501135 -7.52954102 5.83227539 C-5.08601763 3.72959219 -2.68632813 1.79088542 0 0 Z " fill="#F6F6F6" transform="translate(628,83)"/>
<path d="M0 0 C1.65 1.32 3.3 2.64 5 4 C3.39581267 8.45135425 -0.03634999 10.88404951 -3.5625 13.8125 C-4.18785645 14.34004883 -4.81321289 14.86759766 -5.45751953 15.41113281 C-10.20855517 19.3982381 -15.04080925 23.27404716 -20 27 C-21.32 25.68 -22.64 24.36 -24 23 C-22.66714203 19.97548473 -21.28613451 18.10738325 -18.76953125 15.9765625 C-17.81143555 15.15671875 -17.81143555 15.15671875 -16.83398438 14.3203125 C-16.16689453 13.76085937 -15.49980469 13.20140625 -14.8125 12.625 C-14.16474609 12.07328125 -13.51699219 11.5215625 -12.84960938 10.953125 C-11.55259745 9.84917479 -10.25329803 8.74790614 -8.95166016 7.64941406 C-5.95381549 5.11583405 -2.97793675 2.55693143 0 0 Z " fill="#F6F6F6" transform="translate(352,318)"/>
</svg>
